solid CATIA STL
  facet normal  1.000000e+000  -0.000000e+000  0.000000e+000
    outer loop
      vertex  5.000000e+000  1.000000e+001  2.500000e+001
      vertex  5.000000e+000  5.000000e+000  2.500000e+001
      vertex  5.000000e+000  5.000000e+000  1.500000e+001
    endloop
  endfacet
  facet normal  1.000000e+000  -0.000000e+000  0.000000e+000
    outer loop
      vertex  5.000000e+000  1.000000e+001  2.500000e+001
      vertex  5.000000e+000  5.000000e+000  1.500000e+001
      vertex  5.000000e+000  5.000000e+000  1.000000e+001
    endloop
  endfacet
  facet normal  1.000000e+000  -0.000000e+000  0.000000e+000
    outer loop
      vertex  5.000000e+000  1.000000e+001  2.500000e+001
      vertex  5.000000e+000  5.000000e+000  1.000000e+001
      vertex  5.000000e+000  5.000000e+000  0.000000e+000
    endloop
  endfacet
  facet normal  1.000000e+000  0.000000e+000  0.000000e+000
    outer loop
      vertex  5.000000e+000  1.000000e+001  2.500000e+001
      vertex  5.000000e+000  5.000000e+000  0.000000e+000
      vertex  5.000000e+000  1.000000e+001  0.000000e+000
    endloop
  endfacet
  facet normal  1.000000e+000  0.000000e+000  0.000000e+000
    outer loop
      vertex  5.000000e+000  5.000000e+000  1.000000e+001
      vertex  5.000000e+000  5.000000e+000  1.500000e+001
      vertex  5.000000e+000 -5.000000e+000  1.000000e+001
    endloop
  endfacet
  facet normal  1.000000e+000  0.000000e+000  0.000000e+000
    outer loop
      vertex  5.000000e+000 -5.000000e+000  1.000000e+001
      vertex  5.000000e+000  5.000000e+000  1.500000e+001
      vertex  5.000000e+000 -5.000000e+000  1.500000e+001
    endloop
  endfacet
  facet normal  1.000000e+000  0.000000e+000  0.000000e+000
    outer loop
      vertex  5.000000e+000 -5.000000e+000  1.000000e+001
      vertex  5.000000e+000 -5.000000e+000  1.500000e+001
      vertex  5.000000e+000 -1.000000e+001  1.500000e+001
    endloop
  endfacet
  facet normal  1.000000e+000  0.000000e+000  0.000000e+000
    outer loop
      vertex  5.000000e+000 -1.000000e+001  3.552714e-014
      vertex  5.000000e+000 -5.000000e+000  0.000000e+000
      vertex  5.000000e+000 -1.000000e+001  1.500000e+001
    endloop
  endfacet
  facet normal  1.000000e+000  0.000000e+000  0.000000e+000
    outer loop
      vertex  5.000000e+000 -1.000000e+001  1.500000e+001
      vertex  5.000000e+000 -5.000000e+000  0.000000e+000
      vertex  5.000000e+000 -5.000000e+000  1.000000e+001
    endloop
  endfacet
  facet normal  1.000000e+000  0.000000e+000  0.000000e+000
    outer loop
      vertex  5.000000e+000 -1.000000e+001  1.500000e+001
      vertex  5.000000e+000 -5.000000e+000  1.500000e+001
      vertex  5.000000e+000 -1.000000e+001  2.500000e+001
    endloop
  endfacet
  facet normal  1.000000e+000  -0.000000e+000  0.000000e+000
    outer loop
      vertex  5.000000e+000 -1.000000e+001  2.500000e+001
      vertex  5.000000e+000 -5.000000e+000  1.500000e+001
      vertex  5.000000e+000 -5.000000e+000  2.500000e+001
    endloop
  endfacet
  facet normal -1.000000e+000  0.000000e+000  0.000000e+000
    outer loop
      vertex  0.000000e+000  1.000000e+001  2.500000e+001
      vertex  0.000000e+000  1.000000e+001  0.000000e+000
      vertex  0.000000e+000  5.000000e+000  0.000000e+000
    endloop
  endfacet
  facet normal -1.000000e+000  0.000000e+000  0.000000e+000
    outer loop
      vertex  0.000000e+000  1.000000e+001  2.500000e+001
      vertex  0.000000e+000  5.000000e+000  0.000000e+000
      vertex  0.000000e+000  5.000000e+000  1.000000e+001
    endloop
  endfacet
  facet normal -1.000000e+000  0.000000e+000  0.000000e+000
    outer loop
      vertex  0.000000e+000  1.000000e+001  2.500000e+001
      vertex  0.000000e+000  5.000000e+000  1.000000e+001
      vertex  0.000000e+000  5.000000e+000  1.500000e+001
    endloop
  endfacet
  facet normal -1.000000e+000  0.000000e+000  0.000000e+000
    outer loop
      vertex  0.000000e+000  1.000000e+001  2.500000e+001
      vertex  0.000000e+000  5.000000e+000  1.500000e+001
      vertex  0.000000e+000  5.000000e+000  2.500000e+001
    endloop
  endfacet
  facet normal -1.000000e+000  -0.000000e+000  -0.000000e+000
    outer loop
      vertex  0.000000e+000 -1.000000e+001  1.500000e+001
      vertex  0.000000e+000 -5.000000e+000  1.500000e+001
      vertex  0.000000e+000 -5.000000e+000  1.000000e+001
    endloop
  endfacet
  facet normal -1.000000e+000  0.000000e+000  0.000000e+000
    outer loop
      vertex  0.000000e+000 -5.000000e+000  1.000000e+001
      vertex  0.000000e+000 -5.000000e+000  1.500000e+001
      vertex  0.000000e+000  5.000000e+000  1.500000e+001
    endloop
  endfacet
  facet normal -1.000000e+000  0.000000e+000  -0.000000e+000
    outer loop
      vertex  0.000000e+000 -5.000000e+000  1.000000e+001
      vertex  0.000000e+000  5.000000e+000  1.500000e+001
      vertex  0.000000e+000  5.000000e+000  1.000000e+001
    endloop
  endfacet
  facet normal -1.000000e+000  0.000000e+000  0.000000e+000
    outer loop
      vertex  0.000000e+000 -1.000000e+001  3.552714e-014
      vertex  0.000000e+000 -1.000000e+001  1.500000e+001
      vertex  0.000000e+000 -5.000000e+000  0.000000e+000
    endloop
  endfacet
  facet normal -1.000000e+000  0.000000e+000  0.000000e+000
    outer loop
      vertex  0.000000e+000 -5.000000e+000  0.000000e+000
      vertex  0.000000e+000 -1.000000e+001  1.500000e+001
      vertex  0.000000e+000 -5.000000e+000  1.000000e+001
    endloop
  endfacet
  facet normal -1.000000e+000  0.000000e+000  0.000000e+000
    outer loop
      vertex  0.000000e+000 -1.000000e+001  1.500000e+001
      vertex  0.000000e+000 -1.000000e+001  2.500000e+001
      vertex  0.000000e+000 -5.000000e+000  1.500000e+001
    endloop
  endfacet
  facet normal -1.000000e+000  0.000000e+000  0.000000e+000
    outer loop
      vertex  0.000000e+000 -5.000000e+000  1.500000e+001
      vertex  0.000000e+000 -1.000000e+001  2.500000e+001
      vertex  0.000000e+000 -5.000000e+000  2.500000e+001
    endloop
  endfacet
  facet normal  0.000000e+000 -1.000000e+000  0.000000e+000
    outer loop
      vertex  5.000000e+000  5.000000e+000  1.000000e+001
      vertex  0.000000e+000  5.000000e+000  1.000000e+001
      vertex  5.000000e+000  5.000000e+000  0.000000e+000
    endloop
  endfacet
  facet normal  0.000000e+000 -1.000000e+000  0.000000e+000
    outer loop
      vertex  5.000000e+000  5.000000e+000  0.000000e+000
      vertex  0.000000e+000  5.000000e+000  1.000000e+001
      vertex  0.000000e+000  5.000000e+000  0.000000e+000
    endloop
  endfacet
  facet normal  0.000000e+000  0.000000e+000 -1.000000e+000
    outer loop
      vertex  5.000000e+000 -5.000000e+000  1.000000e+001
      vertex  0.000000e+000 -5.000000e+000  1.000000e+001
      vertex  5.000000e+000  5.000000e+000  1.000000e+001
    endloop
  endfacet
  facet normal  -0.000000e+000  0.000000e+000 -1.000000e+000
    outer loop
      vertex  5.000000e+000  5.000000e+000  1.000000e+001
      vertex  0.000000e+000 -5.000000e+000  1.000000e+001
      vertex  0.000000e+000  5.000000e+000  1.000000e+001
    endloop
  endfacet
  facet normal  0.000000e+000  1.000000e+000  0.000000e+000
    outer loop
      vertex  5.000000e+000 -5.000000e+000  0.000000e+000
      vertex  0.000000e+000 -5.000000e+000  0.000000e+000
      vertex  5.000000e+000 -5.000000e+000  1.000000e+001
    endloop
  endfacet
  facet normal  0.000000e+000  1.000000e+000  0.000000e+000
    outer loop
      vertex  5.000000e+000 -5.000000e+000  1.000000e+001
      vertex  0.000000e+000 -5.000000e+000  0.000000e+000
      vertex  0.000000e+000 -5.000000e+000  1.000000e+001
    endloop
  endfacet
  facet normal  0.000000e+000 -7.105427e-015 -1.000000e+000
    outer loop
      vertex  5.000000e+000 -1.000000e+001  3.552714e-014
      vertex  0.000000e+000 -1.000000e+001  3.552714e-014
      vertex  5.000000e+000 -5.000000e+000  0.000000e+000
    endloop
  endfacet
  facet normal  -0.000000e+000 -7.105427e-015 -1.000000e+000
    outer loop
      vertex  5.000000e+000 -5.000000e+000  0.000000e+000
      vertex  0.000000e+000 -1.000000e+001  3.552714e-014
      vertex  0.000000e+000 -5.000000e+000  0.000000e+000
    endloop
  endfacet
  facet normal  0.000000e+000 -1.000000e+000  0.000000e+000
    outer loop
      vertex  5.000000e+000 -1.000000e+001  1.500000e+001
      vertex  0.000000e+000 -1.000000e+001  1.500000e+001
      vertex  5.000000e+000 -1.000000e+001  3.552714e-014
    endloop
  endfacet
  facet normal  0.000000e+000 -1.000000e+000  0.000000e+000
    outer loop
      vertex  5.000000e+000 -1.000000e+001  3.552714e-014
      vertex  0.000000e+000 -1.000000e+001  1.500000e+001
      vertex  0.000000e+000 -1.000000e+001  3.552714e-014
    endloop
  endfacet
  facet normal  0.000000e+000 -1.000000e+000  0.000000e+000
    outer loop
      vertex  5.000000e+000 -1.000000e+001  2.500000e+001
      vertex  0.000000e+000 -1.000000e+001  2.500000e+001
      vertex  5.000000e+000 -1.000000e+001  1.500000e+001
    endloop
  endfacet
  facet normal  0.000000e+000 -1.000000e+000  0.000000e+000
    outer loop
      vertex  5.000000e+000 -1.000000e+001  1.500000e+001
      vertex  0.000000e+000 -1.000000e+001  2.500000e+001
      vertex  0.000000e+000 -1.000000e+001  1.500000e+001
    endloop
  endfacet
  facet normal  -0.000000e+000  0.000000e+000  1.000000e+000
    outer loop
      vertex  5.000000e+000 -5.000000e+000  2.500000e+001
      vertex  0.000000e+000 -5.000000e+000  2.500000e+001
      vertex  5.000000e+000 -1.000000e+001  2.500000e+001
    endloop
  endfacet
  facet normal  0.000000e+000  0.000000e+000  1.000000e+000
    outer loop
      vertex  5.000000e+000 -1.000000e+001  2.500000e+001
      vertex  0.000000e+000 -5.000000e+000  2.500000e+001
      vertex  0.000000e+000 -1.000000e+001  2.500000e+001
    endloop
  endfacet
  facet normal  0.000000e+000  1.000000e+000  0.000000e+000
    outer loop
      vertex  5.000000e+000 -5.000000e+000  1.500000e+001
      vertex  0.000000e+000 -5.000000e+000  1.500000e+001
      vertex  5.000000e+000 -5.000000e+000  2.500000e+001
    endloop
  endfacet
  facet normal  0.000000e+000  1.000000e+000  0.000000e+000
    outer loop
      vertex  5.000000e+000 -5.000000e+000  2.500000e+001
      vertex  0.000000e+000 -5.000000e+000  1.500000e+001
      vertex  0.000000e+000 -5.000000e+000  2.500000e+001
    endloop
  endfacet
  facet normal  -0.000000e+000  0.000000e+000  1.000000e+000
    outer loop
      vertex  5.000000e+000  5.000000e+000  1.500000e+001
      vertex  0.000000e+000  5.000000e+000  1.500000e+001
      vertex  5.000000e+000 -5.000000e+000  1.500000e+001
    endloop
  endfacet
  facet normal  0.000000e+000  0.000000e+000  1.000000e+000
    outer loop
      vertex  5.000000e+000 -5.000000e+000  1.500000e+001
      vertex  0.000000e+000  5.000000e+000  1.500000e+001
      vertex  0.000000e+000 -5.000000e+000  1.500000e+001
    endloop
  endfacet
  facet normal  0.000000e+000 -1.000000e+000  0.000000e+000
    outer loop
      vertex  5.000000e+000  5.000000e+000  2.500000e+001
      vertex  0.000000e+000  5.000000e+000  2.500000e+001
      vertex  5.000000e+000  5.000000e+000  1.500000e+001
    endloop
  endfacet
  facet normal  0.000000e+000 -1.000000e+000  0.000000e+000
    outer loop
      vertex  5.000000e+000  5.000000e+000  1.500000e+001
      vertex  0.000000e+000  5.000000e+000  2.500000e+001
      vertex  0.000000e+000  5.000000e+000  1.500000e+001
    endloop
  endfacet
  facet normal  -0.000000e+000  0.000000e+000  1.000000e+000
    outer loop
      vertex  5.000000e+000  1.000000e+001  2.500000e+001
      vertex  0.000000e+000  1.000000e+001  2.500000e+001
      vertex  5.000000e+000  5.000000e+000  2.500000e+001
    endloop
  endfacet
  facet normal  0.000000e+000  0.000000e+000  1.000000e+000
    outer loop
      vertex  5.000000e+000  5.000000e+000  2.500000e+001
      vertex  0.000000e+000  1.000000e+001  2.500000e+001
      vertex  0.000000e+000  5.000000e+000  2.500000e+001
    endloop
  endfacet
  facet normal  0.000000e+000  1.000000e+000  0.000000e+000
    outer loop
      vertex  5.000000e+000  1.000000e+001  0.000000e+000
      vertex  0.000000e+000  1.000000e+001  0.000000e+000
      vertex  5.000000e+000  1.000000e+001  2.500000e+001
    endloop
  endfacet
  facet normal  0.000000e+000  1.000000e+000  0.000000e+000
    outer loop
      vertex  5.000000e+000  1.000000e+001  2.500000e+001
      vertex  0.000000e+000  1.000000e+001  0.000000e+000
      vertex  0.000000e+000  1.000000e+001  2.500000e+001
    endloop
  endfacet
  facet normal  0.000000e+000  0.000000e+000 -1.000000e+000
    outer loop
      vertex  5.000000e+000  5.000000e+000  0.000000e+000
      vertex  0.000000e+000  5.000000e+000  0.000000e+000
      vertex  5.000000e+000  1.000000e+001  0.000000e+000
    endloop
  endfacet
  facet normal  -0.000000e+000  0.000000e+000 -1.000000e+000
    outer loop
      vertex  5.000000e+000  1.000000e+001  0.000000e+000
      vertex  0.000000e+000  5.000000e+000  0.000000e+000
      vertex  0.000000e+000  1.000000e+001  0.000000e+000
    endloop
  endfacet
endsolid CATIA STL
