solid CATIA STL
  facet normal  1.000000e+000  -0.000000e+000  0.000000e+000
    outer loop
      vertex  5.000000e+000  7.000000e+000  2.500000e+001
      vertex  5.000000e+000  2.000000e+000  2.500000e+001
      vertex  5.000000e+000  2.000000e+000  1.500000e+001
    endloop
  endfacet
  facet normal  1.000000e+000  -0.000000e+000  0.000000e+000
    outer loop
      vertex  5.000000e+000  7.000000e+000  2.500000e+001
      vertex  5.000000e+000  2.000000e+000  1.500000e+001
      vertex  5.000000e+000  2.000000e+000  1.000000e+001
    endloop
  endfacet
  facet normal  1.000000e+000  -0.000000e+000  0.000000e+000
    outer loop
      vertex  5.000000e+000  7.000000e+000  2.500000e+001
      vertex  5.000000e+000  2.000000e+000  1.000000e+001
      vertex  5.000000e+000  2.000000e+000  0.000000e+000
    endloop
  endfacet
  facet normal  1.000000e+000  0.000000e+000  0.000000e+000
    outer loop
      vertex  5.000000e+000  7.000000e+000  2.500000e+001
      vertex  5.000000e+000  2.000000e+000  0.000000e+000
      vertex  5.000000e+000  7.000000e+000  0.000000e+000
    endloop
  endfacet
  facet normal  1.000000e+000  0.000000e+000  0.000000e+000
    outer loop
      vertex  5.000000e+000  2.000000e+000  1.000000e+001
      vertex  5.000000e+000  2.000000e+000  1.500000e+001
      vertex  5.000000e+000 -2.000000e+000  1.000000e+001
    endloop
  endfacet
  facet normal  1.000000e+000  0.000000e+000  0.000000e+000
    outer loop
      vertex  5.000000e+000 -2.000000e+000  1.000000e+001
      vertex  5.000000e+000  2.000000e+000  1.500000e+001
      vertex  5.000000e+000 -2.000000e+000  1.500000e+001
    endloop
  endfacet
  facet normal  1.000000e+000  0.000000e+000  0.000000e+000
    outer loop
      vertex  5.000000e+000 -2.000000e+000  1.000000e+001
      vertex  5.000000e+000 -2.000000e+000  1.500000e+001
      vertex  5.000000e+000 -7.000000e+000  1.500000e+001
    endloop
  endfacet
  facet normal  1.000000e+000  0.000000e+000  0.000000e+000
    outer loop
      vertex  5.000000e+000 -7.000000e+000  2.842171e-014
      vertex  5.000000e+000 -2.000000e+000  0.000000e+000
      vertex  5.000000e+000 -7.000000e+000  1.500000e+001
    endloop
  endfacet
  facet normal  1.000000e+000  0.000000e+000  0.000000e+000
    outer loop
      vertex  5.000000e+000 -7.000000e+000  1.500000e+001
      vertex  5.000000e+000 -2.000000e+000  0.000000e+000
      vertex  5.000000e+000 -2.000000e+000  1.000000e+001
    endloop
  endfacet
  facet normal  1.000000e+000  0.000000e+000  0.000000e+000
    outer loop
      vertex  5.000000e+000 -7.000000e+000  1.500000e+001
      vertex  5.000000e+000 -2.000000e+000  1.500000e+001
      vertex  5.000000e+000 -7.000000e+000  2.500000e+001
    endloop
  endfacet
  facet normal  1.000000e+000  -0.000000e+000  0.000000e+000
    outer loop
      vertex  5.000000e+000 -7.000000e+000  2.500000e+001
      vertex  5.000000e+000 -2.000000e+000  1.500000e+001
      vertex  5.000000e+000 -2.000000e+000  2.500000e+001
    endloop
  endfacet
  facet normal -1.000000e+000  0.000000e+000  0.000000e+000
    outer loop
      vertex  0.000000e+000  7.000000e+000  2.500000e+001
      vertex  0.000000e+000  7.000000e+000  0.000000e+000
      vertex  0.000000e+000  2.000000e+000  0.000000e+000
    endloop
  endfacet
  facet normal -1.000000e+000  0.000000e+000  0.000000e+000
    outer loop
      vertex  0.000000e+000  7.000000e+000  2.500000e+001
      vertex  0.000000e+000  2.000000e+000  0.000000e+000
      vertex  0.000000e+000  2.000000e+000  1.000000e+001
    endloop
  endfacet
  facet normal -1.000000e+000  0.000000e+000  0.000000e+000
    outer loop
      vertex  0.000000e+000  7.000000e+000  2.500000e+001
      vertex  0.000000e+000  2.000000e+000  1.000000e+001
      vertex  0.000000e+000  2.000000e+000  1.500000e+001
    endloop
  endfacet
  facet normal -1.000000e+000  0.000000e+000  0.000000e+000
    outer loop
      vertex  0.000000e+000  7.000000e+000  2.500000e+001
      vertex  0.000000e+000  2.000000e+000  1.500000e+001
      vertex  0.000000e+000  2.000000e+000  2.500000e+001
    endloop
  endfacet
  facet normal -1.000000e+000  -0.000000e+000  -0.000000e+000
    outer loop
      vertex  0.000000e+000 -7.000000e+000  1.500000e+001
      vertex  0.000000e+000 -2.000000e+000  1.500000e+001
      vertex  0.000000e+000 -2.000000e+000  1.000000e+001
    endloop
  endfacet
  facet normal -1.000000e+000  0.000000e+000  0.000000e+000
    outer loop
      vertex  0.000000e+000 -2.000000e+000  1.000000e+001
      vertex  0.000000e+000 -2.000000e+000  1.500000e+001
      vertex  0.000000e+000  2.000000e+000  1.500000e+001
    endloop
  endfacet
  facet normal -1.000000e+000  0.000000e+000  -0.000000e+000
    outer loop
      vertex  0.000000e+000 -2.000000e+000  1.000000e+001
      vertex  0.000000e+000  2.000000e+000  1.500000e+001
      vertex  0.000000e+000  2.000000e+000  1.000000e+001
    endloop
  endfacet
  facet normal -1.000000e+000  0.000000e+000  0.000000e+000
    outer loop
      vertex  0.000000e+000 -7.000000e+000  2.842171e-014
      vertex  0.000000e+000 -7.000000e+000  1.500000e+001
      vertex  0.000000e+000 -2.000000e+000  0.000000e+000
    endloop
  endfacet
  facet normal -1.000000e+000  0.000000e+000  0.000000e+000
    outer loop
      vertex  0.000000e+000 -2.000000e+000  0.000000e+000
      vertex  0.000000e+000 -7.000000e+000  1.500000e+001
      vertex  0.000000e+000 -2.000000e+000  1.000000e+001
    endloop
  endfacet
  facet normal -1.000000e+000  0.000000e+000  0.000000e+000
    outer loop
      vertex  0.000000e+000 -7.000000e+000  1.500000e+001
      vertex  0.000000e+000 -7.000000e+000  2.500000e+001
      vertex  0.000000e+000 -2.000000e+000  1.500000e+001
    endloop
  endfacet
  facet normal -1.000000e+000  0.000000e+000  0.000000e+000
    outer loop
      vertex  0.000000e+000 -2.000000e+000  1.500000e+001
      vertex  0.000000e+000 -7.000000e+000  2.500000e+001
      vertex  0.000000e+000 -2.000000e+000  2.500000e+001
    endloop
  endfacet
  facet normal  0.000000e+000 -1.000000e+000  0.000000e+000
    outer loop
      vertex  5.000000e+000  2.000000e+000  1.000000e+001
      vertex  0.000000e+000  2.000000e+000  1.000000e+001
      vertex  5.000000e+000  2.000000e+000  0.000000e+000
    endloop
  endfacet
  facet normal  0.000000e+000 -1.000000e+000  0.000000e+000
    outer loop
      vertex  5.000000e+000  2.000000e+000  0.000000e+000
      vertex  0.000000e+000  2.000000e+000  1.000000e+001
      vertex  0.000000e+000  2.000000e+000  0.000000e+000
    endloop
  endfacet
  facet normal  0.000000e+000  0.000000e+000 -1.000000e+000
    outer loop
      vertex  0.000000e+000 -2.000000e+000  1.000000e+001
      vertex  0.000000e+000  2.000000e+000  1.000000e+001
      vertex  5.000000e+000 -2.000000e+000  1.000000e+001
    endloop
  endfacet
  facet normal  0.000000e+000  0.000000e+000 -1.000000e+000
    outer loop
      vertex  5.000000e+000 -2.000000e+000  1.000000e+001
      vertex  0.000000e+000  2.000000e+000  1.000000e+001
      vertex  5.000000e+000  2.000000e+000  1.000000e+001
    endloop
  endfacet
  facet normal  0.000000e+000  1.000000e+000  0.000000e+000
    outer loop
      vertex  5.000000e+000 -2.000000e+000  0.000000e+000
      vertex  0.000000e+000 -2.000000e+000  0.000000e+000
      vertex  5.000000e+000 -2.000000e+000  1.000000e+001
    endloop
  endfacet
  facet normal  0.000000e+000  1.000000e+000  0.000000e+000
    outer loop
      vertex  5.000000e+000 -2.000000e+000  1.000000e+001
      vertex  0.000000e+000 -2.000000e+000  0.000000e+000
      vertex  0.000000e+000 -2.000000e+000  1.000000e+001
    endloop
  endfacet
  facet normal  0.000000e+000 -5.684342e-015 -1.000000e+000
    outer loop
      vertex  5.000000e+000 -7.000000e+000  2.842171e-014
      vertex  0.000000e+000 -7.000000e+000  2.842171e-014
      vertex  5.000000e+000 -2.000000e+000  0.000000e+000
    endloop
  endfacet
  facet normal  -0.000000e+000 -5.684342e-015 -1.000000e+000
    outer loop
      vertex  5.000000e+000 -2.000000e+000  0.000000e+000
      vertex  0.000000e+000 -7.000000e+000  2.842171e-014
      vertex  0.000000e+000 -2.000000e+000  0.000000e+000
    endloop
  endfacet
  facet normal  0.000000e+000 -1.000000e+000  0.000000e+000
    outer loop
      vertex  5.000000e+000 -7.000000e+000  1.500000e+001
      vertex  0.000000e+000 -7.000000e+000  1.500000e+001
      vertex  5.000000e+000 -7.000000e+000  2.842171e-014
    endloop
  endfacet
  facet normal  0.000000e+000 -1.000000e+000  0.000000e+000
    outer loop
      vertex  5.000000e+000 -7.000000e+000  2.842171e-014
      vertex  0.000000e+000 -7.000000e+000  1.500000e+001
      vertex  0.000000e+000 -7.000000e+000  2.842171e-014
    endloop
  endfacet
  facet normal  0.000000e+000 -1.000000e+000  0.000000e+000
    outer loop
      vertex  5.000000e+000 -7.000000e+000  2.500000e+001
      vertex  0.000000e+000 -7.000000e+000  2.500000e+001
      vertex  5.000000e+000 -7.000000e+000  1.500000e+001
    endloop
  endfacet
  facet normal  0.000000e+000 -1.000000e+000  0.000000e+000
    outer loop
      vertex  5.000000e+000 -7.000000e+000  1.500000e+001
      vertex  0.000000e+000 -7.000000e+000  2.500000e+001
      vertex  0.000000e+000 -7.000000e+000  1.500000e+001
    endloop
  endfacet
  facet normal  -0.000000e+000  0.000000e+000  1.000000e+000
    outer loop
      vertex  5.000000e+000 -2.000000e+000  2.500000e+001
      vertex  0.000000e+000 -2.000000e+000  2.500000e+001
      vertex  5.000000e+000 -7.000000e+000  2.500000e+001
    endloop
  endfacet
  facet normal  0.000000e+000  0.000000e+000  1.000000e+000
    outer loop
      vertex  5.000000e+000 -7.000000e+000  2.500000e+001
      vertex  0.000000e+000 -2.000000e+000  2.500000e+001
      vertex  0.000000e+000 -7.000000e+000  2.500000e+001
    endloop
  endfacet
  facet normal  0.000000e+000  1.000000e+000  0.000000e+000
    outer loop
      vertex  5.000000e+000 -2.000000e+000  1.500000e+001
      vertex  0.000000e+000 -2.000000e+000  1.500000e+001
      vertex  5.000000e+000 -2.000000e+000  2.500000e+001
    endloop
  endfacet
  facet normal  0.000000e+000  1.000000e+000  0.000000e+000
    outer loop
      vertex  5.000000e+000 -2.000000e+000  2.500000e+001
      vertex  0.000000e+000 -2.000000e+000  1.500000e+001
      vertex  0.000000e+000 -2.000000e+000  2.500000e+001
    endloop
  endfacet
  facet normal  0.000000e+000  0.000000e+000  1.000000e+000
    outer loop
      vertex  0.000000e+000  2.000000e+000  1.500000e+001
      vertex  0.000000e+000 -2.000000e+000  1.500000e+001
      vertex  5.000000e+000  2.000000e+000  1.500000e+001
    endloop
  endfacet
  facet normal  0.000000e+000  0.000000e+000  1.000000e+000
    outer loop
      vertex  5.000000e+000  2.000000e+000  1.500000e+001
      vertex  0.000000e+000 -2.000000e+000  1.500000e+001
      vertex  5.000000e+000 -2.000000e+000  1.500000e+001
    endloop
  endfacet
  facet normal  0.000000e+000 -1.000000e+000  0.000000e+000
    outer loop
      vertex  5.000000e+000  2.000000e+000  2.500000e+001
      vertex  0.000000e+000  2.000000e+000  2.500000e+001
      vertex  5.000000e+000  2.000000e+000  1.500000e+001
    endloop
  endfacet
  facet normal  0.000000e+000 -1.000000e+000  0.000000e+000
    outer loop
      vertex  5.000000e+000  2.000000e+000  1.500000e+001
      vertex  0.000000e+000  2.000000e+000  2.500000e+001
      vertex  0.000000e+000  2.000000e+000  1.500000e+001
    endloop
  endfacet
  facet normal  -0.000000e+000  0.000000e+000  1.000000e+000
    outer loop
      vertex  5.000000e+000  7.000000e+000  2.500000e+001
      vertex  0.000000e+000  7.000000e+000  2.500000e+001
      vertex  5.000000e+000  2.000000e+000  2.500000e+001
    endloop
  endfacet
  facet normal  0.000000e+000  0.000000e+000  1.000000e+000
    outer loop
      vertex  5.000000e+000  2.000000e+000  2.500000e+001
      vertex  0.000000e+000  7.000000e+000  2.500000e+001
      vertex  0.000000e+000  2.000000e+000  2.500000e+001
    endloop
  endfacet
  facet normal  0.000000e+000  1.000000e+000  0.000000e+000
    outer loop
      vertex  5.000000e+000  7.000000e+000  0.000000e+000
      vertex  0.000000e+000  7.000000e+000  0.000000e+000
      vertex  5.000000e+000  7.000000e+000  2.500000e+001
    endloop
  endfacet
  facet normal  0.000000e+000  1.000000e+000  0.000000e+000
    outer loop
      vertex  5.000000e+000  7.000000e+000  2.500000e+001
      vertex  0.000000e+000  7.000000e+000  0.000000e+000
      vertex  0.000000e+000  7.000000e+000  2.500000e+001
    endloop
  endfacet
  facet normal  0.000000e+000  0.000000e+000 -1.000000e+000
    outer loop
      vertex  5.000000e+000  2.000000e+000  0.000000e+000
      vertex  0.000000e+000  2.000000e+000  0.000000e+000
      vertex  5.000000e+000  7.000000e+000  0.000000e+000
    endloop
  endfacet
  facet normal  -0.000000e+000  0.000000e+000 -1.000000e+000
    outer loop
      vertex  5.000000e+000  7.000000e+000  0.000000e+000
      vertex  0.000000e+000  2.000000e+000  0.000000e+000
      vertex  0.000000e+000  7.000000e+000  0.000000e+000
    endloop
  endfacet
endsolid CATIA STL
