solid CATIA STL
  facet normal  1.000000e+000  0.000000e+000  -0.000000e+000
    outer loop
      vertex  5.000000e+000 -1.000000e+001  3.500000e+001
      vertex  5.000000e+000 -5.000000e+000  2.000000e+001
      vertex  5.000000e+000 -5.000000e+000  3.500000e+001
    endloop
  endfacet
  facet normal  9.999999e-001  0.000000e+000  0.000000e+000
    outer loop
      vertex  5.000000e+000  1.000000e+001  3.500000e+001
      vertex  5.000000e+000  4.031089e+001  5.250000e+001
      vertex  5.000000e+000  3.511674e+001  5.250000e+001
    endloop
  endfacet
  facet normal  1.000000e+000  0.000000e+000  0.000000e+000
    outer loop
      vertex  5.000000e+000  1.000000e+001  3.500000e+001
      vertex  5.000000e+000  3.511674e+001  5.250000e+001
      vertex  5.000000e+000  5.000000e+000  3.511209e+001
    endloop
  endfacet
  facet normal  9.999999e-001  0.000000e+000  0.000000e+000
    outer loop
      vertex  5.000000e+000  1.000000e+001  3.500000e+001
      vertex  5.000000e+000  5.000000e+000  3.511209e+001
      vertex  5.000000e+000  5.000000e+000  2.000000e+001
    endloop
  endfacet
  facet normal  1.000000e+000  -0.000000e+000  0.000000e+000
    outer loop
      vertex  5.000000e+000  1.000000e+001  3.500000e+001
      vertex  5.000000e+000  5.000000e+000  2.000000e+001
      vertex  5.000000e+000  5.000000e+000  1.500000e+001
    endloop
  endfacet
  facet normal  1.000000e+000  -0.000000e+000  0.000000e+000
    outer loop
      vertex  5.000000e+000  1.000000e+001  3.500000e+001
      vertex  5.000000e+000  5.000000e+000  1.500000e+001
      vertex  5.000000e+000  5.000000e+000 -1.776357e-015
    endloop
  endfacet
  facet normal  1.000000e+000  0.000000e+000  0.000000e+000
    outer loop
      vertex  5.000000e+000  1.000000e+001  3.500000e+001
      vertex  5.000000e+000  5.000000e+000 -1.776357e-015
      vertex  5.000000e+000  1.000000e+001  0.000000e+000
    endloop
  endfacet
  facet normal  1.000000e+000  0.000000e+000  -0.000000e+000
    outer loop
      vertex  5.000000e+000 -5.000000e+000  1.500000e+001
      vertex  5.000000e+000  5.000000e+000  1.500000e+001
      vertex  5.000000e+000  5.000000e+000  2.000000e+001
    endloop
  endfacet
  facet normal  1.000000e+000  0.000000e+000  0.000000e+000
    outer loop
      vertex  5.000000e+000 -5.000000e+000  1.500000e+001
      vertex  5.000000e+000  5.000000e+000  2.000000e+001
      vertex  5.000000e+000 -5.000000e+000  2.000000e+001
    endloop
  endfacet
  facet normal  1.000000e+000  0.000000e+000  0.000000e+000
    outer loop
      vertex  5.000000e+000 -5.000000e+000  1.500000e+001
      vertex  5.000000e+000 -5.000000e+000  2.000000e+001
      vertex  5.000000e+000 -1.000000e+001  3.500000e+001
    endloop
  endfacet
  facet normal  1.000000e+000  0.000000e+000  0.000000e+000
    outer loop
      vertex  5.000000e+000 -5.000000e+000  1.500000e+001
      vertex  5.000000e+000 -1.000000e+001  3.500000e+001
      vertex  5.000000e+000 -1.000000e+001  0.000000e+000
    endloop
  endfacet
  facet normal  1.000000e+000  0.000000e+000  0.000000e+000
    outer loop
      vertex  5.000000e+000 -5.000000e+000  1.500000e+001
      vertex  5.000000e+000 -1.000000e+001  0.000000e+000
      vertex  5.000000e+000 -5.000000e+000  0.000000e+000
    endloop
  endfacet
  facet normal -1.000000e+000  0.000000e+000  0.000000e+000
    outer loop
      vertex  0.000000e+000 -5.000000e+000  3.500000e+001
      vertex  0.000000e+000 -5.000000e+000  2.000000e+001
      vertex  0.000000e+000 -1.000000e+001  3.500000e+001
    endloop
  endfacet
  facet normal -1.000000e+000  -0.000000e+000  0.000000e+000
    outer loop
      vertex  0.000000e+000  1.000000e+001  3.500000e+001
      vertex  0.000000e+000  1.000000e+001  0.000000e+000
      vertex  0.000000e+000  5.000000e+000 -1.776357e-015
    endloop
  endfacet
  facet normal -1.000000e+000  0.000000e+000  0.000000e+000
    outer loop
      vertex  0.000000e+000  1.000000e+001  3.500000e+001
      vertex  0.000000e+000  5.000000e+000 -1.776357e-015
      vertex  0.000000e+000  5.000000e+000  1.500000e+001
    endloop
  endfacet
  facet normal -1.000000e+000  0.000000e+000  0.000000e+000
    outer loop
      vertex  0.000000e+000  1.000000e+001  3.500000e+001
      vertex  0.000000e+000  5.000000e+000  1.500000e+001
      vertex  0.000000e+000  5.000000e+000  2.000000e+001
    endloop
  endfacet
  facet normal -9.999999e-001  0.000000e+000  0.000000e+000
    outer loop
      vertex  0.000000e+000  1.000000e+001  3.500000e+001
      vertex  0.000000e+000  5.000000e+000  2.000000e+001
      vertex  0.000000e+000  5.000000e+000  3.511209e+001
    endloop
  endfacet
  facet normal -1.000000e+000  0.000000e+000  0.000000e+000
    outer loop
      vertex  0.000000e+000  1.000000e+001  3.500000e+001
      vertex  0.000000e+000  5.000000e+000  3.511209e+001
      vertex  0.000000e+000  3.511674e+001  5.250000e+001
    endloop
  endfacet
  facet normal -9.999999e-001  0.000000e+000  -0.000000e+000
    outer loop
      vertex  0.000000e+000  1.000000e+001  3.500000e+001
      vertex  0.000000e+000  3.511674e+001  5.250000e+001
      vertex  0.000000e+000  4.031089e+001  5.250000e+001
    endloop
  endfacet
  facet normal -1.000000e+000  0.000000e+000  0.000000e+000
    outer loop
      vertex  0.000000e+000 -5.000000e+000  1.500000e+001
      vertex  0.000000e+000 -5.000000e+000  0.000000e+000
      vertex  0.000000e+000 -1.000000e+001  0.000000e+000
    endloop
  endfacet
  facet normal -1.000000e+000  0.000000e+000  0.000000e+000
    outer loop
      vertex  0.000000e+000 -5.000000e+000  1.500000e+001
      vertex  0.000000e+000 -1.000000e+001  0.000000e+000
      vertex  0.000000e+000 -1.000000e+001  3.500000e+001
    endloop
  endfacet
  facet normal -1.000000e+000  0.000000e+000  0.000000e+000
    outer loop
      vertex  0.000000e+000 -5.000000e+000  1.500000e+001
      vertex  0.000000e+000 -1.000000e+001  3.500000e+001
      vertex  0.000000e+000 -5.000000e+000  2.000000e+001
    endloop
  endfacet
  facet normal -1.000000e+000  0.000000e+000  0.000000e+000
    outer loop
      vertex  0.000000e+000 -5.000000e+000  1.500000e+001
      vertex  0.000000e+000 -5.000000e+000  2.000000e+001
      vertex  0.000000e+000  5.000000e+000  2.000000e+001
    endloop
  endfacet
  facet normal -1.000000e+000  0.000000e+000  -0.000000e+000
    outer loop
      vertex  0.000000e+000 -5.000000e+000  1.500000e+001
      vertex  0.000000e+000  5.000000e+000  2.000000e+001
      vertex  0.000000e+000  5.000000e+000  1.500000e+001
    endloop
  endfacet
  facet normal  0.000000e+000 -1.000000e+000  0.000000e+000
    outer loop
      vertex  5.000000e+000 -1.000000e+001  3.500000e+001
      vertex  0.000000e+000 -1.000000e+001  3.500000e+001
      vertex  5.000000e+000 -1.000000e+001  0.000000e+000
    endloop
  endfacet
  facet normal  0.000000e+000 -1.000000e+000  0.000000e+000
    outer loop
      vertex  5.000000e+000 -1.000000e+001  0.000000e+000
      vertex  0.000000e+000 -1.000000e+001  3.500000e+001
      vertex  0.000000e+000 -1.000000e+001  0.000000e+000
    endloop
  endfacet
  facet normal  0.000000e+000  0.000000e+000  1.000000e+000
    outer loop
      vertex  0.000000e+000 -5.000000e+000  3.500000e+001
      vertex  0.000000e+000 -1.000000e+001  3.500000e+001
      vertex  5.000000e+000 -5.000000e+000  3.500000e+001
    endloop
  endfacet
  facet normal  0.000000e+000  0.000000e+000  1.000000e+000
    outer loop
      vertex  5.000000e+000 -5.000000e+000  3.500000e+001
      vertex  0.000000e+000 -1.000000e+001  3.500000e+001
      vertex  5.000000e+000 -1.000000e+001  3.500000e+001
    endloop
  endfacet
  facet normal  0.000000e+000  1.000000e+000  0.000000e+000
    outer loop
      vertex  5.000000e+000 -5.000000e+000  2.000000e+001
      vertex  0.000000e+000 -5.000000e+000  2.000000e+001
      vertex  5.000000e+000 -5.000000e+000  3.500000e+001
    endloop
  endfacet
  facet normal  0.000000e+000  1.000000e+000  0.000000e+000
    outer loop
      vertex  5.000000e+000 -5.000000e+000  3.500000e+001
      vertex  0.000000e+000 -5.000000e+000  2.000000e+001
      vertex  0.000000e+000 -5.000000e+000  3.500000e+001
    endloop
  endfacet
  facet normal  -0.000000e+000  0.000000e+000  1.000000e+000
    outer loop
      vertex  5.000000e+000  5.000000e+000  2.000000e+001
      vertex  0.000000e+000  5.000000e+000  2.000000e+001
      vertex  5.000000e+000 -5.000000e+000  2.000000e+001
    endloop
  endfacet
  facet normal  0.000000e+000  0.000000e+000  1.000000e+000
    outer loop
      vertex  5.000000e+000 -5.000000e+000  2.000000e+001
      vertex  0.000000e+000  5.000000e+000  2.000000e+001
      vertex  0.000000e+000 -5.000000e+000  2.000000e+001
    endloop
  endfacet
  facet normal  0.000000e+000 -9.999999e-001  0.000000e+000
    outer loop
      vertex  5.000000e+000  5.000000e+000  3.511209e+001
      vertex  0.000000e+000  5.000000e+000  3.511209e+001
      vertex  5.000000e+000  5.000000e+000  2.000000e+001
    endloop
  endfacet
  facet normal  0.000000e+000 -9.999999e-001  0.000000e+000
    outer loop
      vertex  5.000000e+000  5.000000e+000  2.000000e+001
      vertex  0.000000e+000  5.000000e+000  3.511209e+001
      vertex  0.000000e+000  5.000000e+000  2.000000e+001
    endloop
  endfacet
  facet normal  0.000000e+000 -5.000000e-001  8.660254e-001
    outer loop
      vertex  5.000000e+000  5.000000e+000  3.511209e+001
      vertex  5.000000e+000  3.511674e+001  5.250000e+001
      vertex  0.000000e+000  5.000000e+000  3.511209e+001
    endloop
  endfacet
  facet normal  0.000000e+000 -5.000000e-001  8.660254e-001
    outer loop
      vertex  0.000000e+000  5.000000e+000  3.511209e+001
      vertex  5.000000e+000  3.511674e+001  5.250000e+001
      vertex  0.000000e+000  3.511674e+001  5.250000e+001
    endloop
  endfacet
  facet normal  -0.000000e+000  0.000000e+000  1.000000e+000
    outer loop
      vertex  5.000000e+000  4.031089e+001  5.250000e+001
      vertex  0.000000e+000  4.031089e+001  5.250000e+001
      vertex  5.000000e+000  3.511674e+001  5.250000e+001
    endloop
  endfacet
  facet normal  0.000000e+000  0.000000e+000  1.000000e+000
    outer loop
      vertex  5.000000e+000  3.511674e+001  5.250000e+001
      vertex  0.000000e+000  4.031089e+001  5.250000e+001
      vertex  0.000000e+000  3.511674e+001  5.250000e+001
    endloop
  endfacet
  facet normal  0.000000e+000  5.000000e-001 -8.660254e-001
    outer loop
      vertex  5.000000e+000  1.000000e+001  3.500000e+001
      vertex  0.000000e+000  1.000000e+001  3.500000e+001
      vertex  5.000000e+000  4.031089e+001  5.250000e+001
    endloop
  endfacet
  facet normal  0.000000e+000  5.000000e-001 -8.660254e-001
    outer loop
      vertex  5.000000e+000  4.031089e+001  5.250000e+001
      vertex  0.000000e+000  1.000000e+001  3.500000e+001
      vertex  0.000000e+000  4.031089e+001  5.250000e+001
    endloop
  endfacet
  facet normal  0.000000e+000  1.000000e+000  0.000000e+000
    outer loop
      vertex  5.000000e+000  1.000000e+001  0.000000e+000
      vertex  0.000000e+000  1.000000e+001  0.000000e+000
      vertex  5.000000e+000  1.000000e+001  3.500000e+001
    endloop
  endfacet
  facet normal  0.000000e+000  1.000000e+000  0.000000e+000
    outer loop
      vertex  5.000000e+000  1.000000e+001  3.500000e+001
      vertex  0.000000e+000  1.000000e+001  0.000000e+000
      vertex  0.000000e+000  1.000000e+001  3.500000e+001
    endloop
  endfacet
  facet normal  0.000000e+000  3.552713e-016 -1.000000e+000
    outer loop
      vertex  5.000000e+000  5.000000e+000 -1.776357e-015
      vertex  0.000000e+000  5.000000e+000 -1.776357e-015
      vertex  5.000000e+000  1.000000e+001  0.000000e+000
    endloop
  endfacet
  facet normal  0.000000e+000  3.552713e-016 -1.000000e+000
    outer loop
      vertex  5.000000e+000  1.000000e+001  0.000000e+000
      vertex  0.000000e+000  5.000000e+000 -1.776357e-015
      vertex  0.000000e+000  1.000000e+001  0.000000e+000
    endloop
  endfacet
  facet normal  0.000000e+000 -1.000000e+000  0.000000e+000
    outer loop
      vertex  5.000000e+000  5.000000e+000  1.500000e+001
      vertex  0.000000e+000  5.000000e+000  1.500000e+001
      vertex  5.000000e+000  5.000000e+000 -1.776357e-015
    endloop
  endfacet
  facet normal  0.000000e+000 -1.000000e+000  0.000000e+000
    outer loop
      vertex  5.000000e+000  5.000000e+000 -1.776357e-015
      vertex  0.000000e+000  5.000000e+000  1.500000e+001
      vertex  0.000000e+000  5.000000e+000 -1.776357e-015
    endloop
  endfacet
  facet normal  0.000000e+000  0.000000e+000 -1.000000e+000
    outer loop
      vertex  5.000000e+000 -5.000000e+000  1.500000e+001
      vertex  0.000000e+000 -5.000000e+000  1.500000e+001
      vertex  5.000000e+000  5.000000e+000  1.500000e+001
    endloop
  endfacet
  facet normal  -0.000000e+000  0.000000e+000 -1.000000e+000
    outer loop
      vertex  5.000000e+000  5.000000e+000  1.500000e+001
      vertex  0.000000e+000 -5.000000e+000  1.500000e+001
      vertex  0.000000e+000  5.000000e+000  1.500000e+001
    endloop
  endfacet
  facet normal  0.000000e+000  1.000000e+000  0.000000e+000
    outer loop
      vertex  5.000000e+000 -5.000000e+000  0.000000e+000
      vertex  0.000000e+000 -5.000000e+000  0.000000e+000
      vertex  5.000000e+000 -5.000000e+000  1.500000e+001
    endloop
  endfacet
  facet normal  0.000000e+000  1.000000e+000  0.000000e+000
    outer loop
      vertex  5.000000e+000 -5.000000e+000  1.500000e+001
      vertex  0.000000e+000 -5.000000e+000  0.000000e+000
      vertex  0.000000e+000 -5.000000e+000  1.500000e+001
    endloop
  endfacet
  facet normal  0.000000e+000  0.000000e+000 -1.000000e+000
    outer loop
      vertex  5.000000e+000 -1.000000e+001  0.000000e+000
      vertex  0.000000e+000 -1.000000e+001  0.000000e+000
      vertex  5.000000e+000 -5.000000e+000  0.000000e+000
    endloop
  endfacet
  facet normal  -0.000000e+000  0.000000e+000 -1.000000e+000
    outer loop
      vertex  5.000000e+000 -5.000000e+000  0.000000e+000
      vertex  0.000000e+000 -1.000000e+001  0.000000e+000
      vertex  0.000000e+000 -5.000000e+000  0.000000e+000
    endloop
  endfacet
endsolid CATIA STL
