solid CATIA STL
  facet normal  0.000000e+000  1.000000e+000  0.000000e+000
    outer loop
      vertex  2.500000e+001  7.500000e+000  0.000000e+000
      vertex  2.000000e+001  7.500000e+000  0.000000e+000
      vertex  2.500000e+001  7.500000e+000  3.500000e+001
    endloop
  endfacet
  facet normal  0.000000e+000  1.000000e+000  0.000000e+000
    outer loop
      vertex  2.500000e+001  7.500000e+000  3.500000e+001
      vertex  2.000000e+001  7.500000e+000  0.000000e+000
      vertex  2.000000e+001  7.500000e+000  3.000000e+001
    endloop
  endfacet
  facet normal  0.000000e+000  1.000000e+000  -0.000000e+000
    outer loop
      vertex  2.500000e+001  7.500000e+000  3.500000e+001
      vertex  2.000000e+001  7.500000e+000  3.000000e+001
      vertex  0.000000e+000  7.500000e+000  3.500000e+001
    endloop
  endfacet
  facet normal  0.000000e+000  1.000000e+000  0.000000e+000
    outer loop
      vertex  0.000000e+000  7.500000e+000  3.500000e+001
      vertex  2.000000e+001  7.500000e+000  3.000000e+001
      vertex  5.000000e+000  7.500000e+000  3.000000e+001
    endloop
  endfacet
  facet normal  0.000000e+000  1.000000e+000  0.000000e+000
    outer loop
      vertex  0.000000e+000  7.500000e+000  3.500000e+001
      vertex  5.000000e+000  7.500000e+000  3.000000e+001
      vertex  0.000000e+000  7.500000e+000  0.000000e+000
    endloop
  endfacet
  facet normal  0.000000e+000  1.000000e+000  0.000000e+000
    outer loop
      vertex  0.000000e+000  7.500000e+000  0.000000e+000
      vertex  5.000000e+000  7.500000e+000  3.000000e+001
      vertex  5.000000e+000  7.500000e+000  0.000000e+000
    endloop
  endfacet
  facet normal  0.000000e+000 -1.000000e+000  0.000000e+000
    outer loop
      vertex  0.000000e+000 -7.500000e+000  1.421085e-014
      vertex  5.000000e+000 -7.500000e+000  1.421085e-014
      vertex  0.000000e+000 -7.500000e+000  3.500000e+001
    endloop
  endfacet
  facet normal  0.000000e+000 -1.000000e+000  0.000000e+000
    outer loop
      vertex  0.000000e+000 -7.500000e+000  3.500000e+001
      vertex  5.000000e+000 -7.500000e+000  1.421085e-014
      vertex  5.000000e+000 -7.500000e+000  3.000000e+001
    endloop
  endfacet
  facet normal  0.000000e+000 -1.000000e+000  0.000000e+000
    outer loop
      vertex  0.000000e+000 -7.500000e+000  3.500000e+001
      vertex  5.000000e+000 -7.500000e+000  3.000000e+001
      vertex  2.500000e+001 -7.500000e+000  3.500000e+001
    endloop
  endfacet
  facet normal  0.000000e+000 -1.000000e+000  0.000000e+000
    outer loop
      vertex  2.500000e+001 -7.500000e+000  3.500000e+001
      vertex  5.000000e+000 -7.500000e+000  3.000000e+001
      vertex  2.000000e+001 -7.500000e+000  3.000000e+001
    endloop
  endfacet
  facet normal  0.000000e+000 -1.000000e+000  0.000000e+000
    outer loop
      vertex  2.500000e+001 -7.500000e+000  3.500000e+001
      vertex  2.000000e+001 -7.500000e+000  3.000000e+001
      vertex  2.500000e+001 -7.500000e+000  0.000000e+000
    endloop
  endfacet
  facet normal  0.000000e+000 -1.000000e+000  0.000000e+000
    outer loop
      vertex  2.500000e+001 -7.500000e+000  0.000000e+000
      vertex  2.000000e+001 -7.500000e+000  3.000000e+001
      vertex  2.000000e+001 -7.500000e+000  0.000000e+000
    endloop
  endfacet
  facet normal  1.000000e+000  0.000000e+000  0.000000e+000
    outer loop
      vertex  2.500000e+001 -7.500000e+000  0.000000e+000
      vertex  2.500000e+001 -2.500000e+000  0.000000e+000
      vertex  2.500000e+001 -7.500000e+000  3.500000e+001
    endloop
  endfacet
  facet normal  1.000000e+000  0.000000e+000  0.000000e+000
    outer loop
      vertex  2.500000e+001 -7.500000e+000  3.500000e+001
      vertex  2.500000e+001 -2.500000e+000  0.000000e+000
      vertex  2.500000e+001 -2.500000e+000  3.000000e+001
    endloop
  endfacet
  facet normal  1.000000e+000  0.000000e+000  -0.000000e+000
    outer loop
      vertex  2.500000e+001 -7.500000e+000  3.500000e+001
      vertex  2.500000e+001 -2.500000e+000  3.000000e+001
      vertex  2.500000e+001  7.500000e+000  3.500000e+001
    endloop
  endfacet
  facet normal  1.000000e+000  0.000000e+000  0.000000e+000
    outer loop
      vertex  2.500000e+001  7.500000e+000  3.500000e+001
      vertex  2.500000e+001 -2.500000e+000  3.000000e+001
      vertex  2.500000e+001  2.500000e+000  3.000000e+001
    endloop
  endfacet
  facet normal  1.000000e+000  -0.000000e+000  0.000000e+000
    outer loop
      vertex  2.500000e+001  7.500000e+000  3.500000e+001
      vertex  2.500000e+001  2.500000e+000  3.000000e+001
      vertex  2.500000e+001  7.500000e+000  0.000000e+000
    endloop
  endfacet
  facet normal  1.000000e+000  0.000000e+000  0.000000e+000
    outer loop
      vertex  2.500000e+001  7.500000e+000  0.000000e+000
      vertex  2.500000e+001  2.500000e+000  3.000000e+001
      vertex  2.500000e+001  2.500000e+000  0.000000e+000
    endloop
  endfacet
  facet normal  0.000000e+000  0.000000e+000  1.000000e+000
    outer loop
      vertex  2.500000e+001 -7.500000e+000  3.500000e+001
      vertex  2.000000e+001 -2.500000e+000  3.500000e+001
      vertex  0.000000e+000 -7.500000e+000  3.500000e+001
    endloop
  endfacet
  facet normal  0.000000e+000  0.000000e+000  1.000000e+000
    outer loop
      vertex  0.000000e+000 -7.500000e+000  3.500000e+001
      vertex  2.000000e+001 -2.500000e+000  3.500000e+001
      vertex  5.000000e+000 -2.500000e+000  3.500000e+001
    endloop
  endfacet
  facet normal  0.000000e+000  0.000000e+000  1.000000e+000
    outer loop
      vertex  0.000000e+000 -7.500000e+000  3.500000e+001
      vertex  5.000000e+000 -2.500000e+000  3.500000e+001
      vertex  0.000000e+000  7.500000e+000  3.500000e+001
    endloop
  endfacet
  facet normal  0.000000e+000  0.000000e+000  1.000000e+000
    outer loop
      vertex  0.000000e+000  7.500000e+000  3.500000e+001
      vertex  5.000000e+000 -2.500000e+000  3.500000e+001
      vertex  5.000000e+000  2.500000e+000  3.500000e+001
    endloop
  endfacet
  facet normal  0.000000e+000  -0.000000e+000  1.000000e+000
    outer loop
      vertex  0.000000e+000  7.500000e+000  3.500000e+001
      vertex  5.000000e+000  2.500000e+000  3.500000e+001
      vertex  2.500000e+001  7.500000e+000  3.500000e+001
    endloop
  endfacet
  facet normal  0.000000e+000  0.000000e+000  1.000000e+000
    outer loop
      vertex  2.500000e+001  7.500000e+000  3.500000e+001
      vertex  5.000000e+000  2.500000e+000  3.500000e+001
      vertex  2.000000e+001  2.500000e+000  3.500000e+001
    endloop
  endfacet
  facet normal  -0.000000e+000  0.000000e+000  1.000000e+000
    outer loop
      vertex  2.500000e+001  7.500000e+000  3.500000e+001
      vertex  2.000000e+001  2.500000e+000  3.500000e+001
      vertex  2.500000e+001 -7.500000e+000  3.500000e+001
    endloop
  endfacet
  facet normal  0.000000e+000  0.000000e+000  1.000000e+000
    outer loop
      vertex  2.500000e+001 -7.500000e+000  3.500000e+001
      vertex  2.000000e+001  2.500000e+000  3.500000e+001
      vertex  2.000000e+001 -2.500000e+000  3.500000e+001
    endloop
  endfacet
  facet normal -1.000000e+000  -0.000000e+000  0.000000e+000
    outer loop
      vertex  2.000000e+001 -2.500000e+000  3.500000e+001
      vertex  2.000000e+001  2.500000e+000  3.500000e+001
      vertex  2.000000e+001 -2.500000e+000  3.000000e+001
    endloop
  endfacet
  facet normal -1.000000e+000  0.000000e+000  0.000000e+000
    outer loop
      vertex  2.000000e+001 -2.500000e+000  3.000000e+001
      vertex  2.000000e+001  2.500000e+000  3.500000e+001
      vertex  2.000000e+001  2.500000e+000  3.000000e+001
    endloop
  endfacet
  facet normal  0.000000e+000  0.000000e+000 -1.000000e+000
    outer loop
      vertex  2.500000e+001 -2.500000e+000  3.000000e+001
      vertex  2.000000e+001 -2.500000e+000  3.000000e+001
      vertex  2.500000e+001  2.500000e+000  3.000000e+001
    endloop
  endfacet
  facet normal  -0.000000e+000  0.000000e+000 -1.000000e+000
    outer loop
      vertex  2.500000e+001  2.500000e+000  3.000000e+001
      vertex  2.000000e+001 -2.500000e+000  3.000000e+001
      vertex  2.000000e+001  2.500000e+000  3.000000e+001
    endloop
  endfacet
  facet normal  0.000000e+000 -1.000000e+000  0.000000e+000
    outer loop
      vertex  2.500000e+001  2.500000e+000  3.000000e+001
      vertex  2.000000e+001  2.500000e+000  3.000000e+001
      vertex  2.500000e+001  2.500000e+000  0.000000e+000
    endloop
  endfacet
  facet normal  0.000000e+000 -1.000000e+000  0.000000e+000
    outer loop
      vertex  2.500000e+001  2.500000e+000  0.000000e+000
      vertex  2.000000e+001  2.500000e+000  3.000000e+001
      vertex  2.000000e+001  2.500000e+000  0.000000e+000
    endloop
  endfacet
  facet normal  0.000000e+000 -1.000000e+000  0.000000e+000
    outer loop
      vertex  2.000000e+001  2.500000e+000  3.500000e+001
      vertex  5.000000e+000  2.500000e+000  3.500000e+001
      vertex  2.000000e+001  2.500000e+000  3.000000e+001
    endloop
  endfacet
  facet normal  0.000000e+000 -1.000000e+000  0.000000e+000
    outer loop
      vertex  2.000000e+001  2.500000e+000  3.000000e+001
      vertex  5.000000e+000  2.500000e+000  3.500000e+001
      vertex  5.000000e+000  2.500000e+000  3.000000e+001
    endloop
  endfacet
  facet normal  0.000000e+000  1.000000e+000  0.000000e+000
    outer loop
      vertex  2.500000e+001 -2.500000e+000  0.000000e+000
      vertex  2.000000e+001 -2.500000e+000  0.000000e+000
      vertex  2.500000e+001 -2.500000e+000  3.000000e+001
    endloop
  endfacet
  facet normal  0.000000e+000  1.000000e+000  0.000000e+000
    outer loop
      vertex  2.500000e+001 -2.500000e+000  3.000000e+001
      vertex  2.000000e+001 -2.500000e+000  0.000000e+000
      vertex  2.000000e+001 -2.500000e+000  3.000000e+001
    endloop
  endfacet
  facet normal  0.000000e+000  1.000000e+000  0.000000e+000
    outer loop
      vertex  2.000000e+001 -2.500000e+000  3.000000e+001
      vertex  5.000000e+000 -2.500000e+000  3.000000e+001
      vertex  2.000000e+001 -2.500000e+000  3.500000e+001
    endloop
  endfacet
  facet normal  0.000000e+000  1.000000e+000  0.000000e+000
    outer loop
      vertex  2.000000e+001 -2.500000e+000  3.500000e+001
      vertex  5.000000e+000 -2.500000e+000  3.000000e+001
      vertex  5.000000e+000 -2.500000e+000  3.500000e+001
    endloop
  endfacet
  facet normal  0.000000e+000  0.000000e+000 -1.000000e+000
    outer loop
      vertex  2.000000e+001 -7.500000e+000  3.000000e+001
      vertex  5.000000e+000 -7.500000e+000  3.000000e+001
      vertex  2.000000e+001 -2.500000e+000  3.000000e+001
    endloop
  endfacet
  facet normal  -0.000000e+000  0.000000e+000 -1.000000e+000
    outer loop
      vertex  2.000000e+001 -2.500000e+000  3.000000e+001
      vertex  5.000000e+000 -7.500000e+000  3.000000e+001
      vertex  5.000000e+000 -2.500000e+000  3.000000e+001
    endloop
  endfacet
  facet normal  0.000000e+000  0.000000e+000 -1.000000e+000
    outer loop
      vertex  2.000000e+001  2.500000e+000  3.000000e+001
      vertex  5.000000e+000  2.500000e+000  3.000000e+001
      vertex  2.000000e+001  7.500000e+000  3.000000e+001
    endloop
  endfacet
  facet normal  -0.000000e+000  0.000000e+000 -1.000000e+000
    outer loop
      vertex  2.000000e+001  7.500000e+000  3.000000e+001
      vertex  5.000000e+000  2.500000e+000  3.000000e+001
      vertex  5.000000e+000  7.500000e+000  3.000000e+001
    endloop
  endfacet
  facet normal -1.000000e+000  -0.000000e+000  0.000000e+000
    outer loop
      vertex  2.000000e+001  2.500000e+000  3.000000e+001
      vertex  2.000000e+001  7.500000e+000  3.000000e+001
      vertex  2.000000e+001  2.500000e+000  0.000000e+000
    endloop
  endfacet
  facet normal -1.000000e+000  0.000000e+000  0.000000e+000
    outer loop
      vertex  2.000000e+001  2.500000e+000  0.000000e+000
      vertex  2.000000e+001  7.500000e+000  3.000000e+001
      vertex  2.000000e+001  7.500000e+000  0.000000e+000
    endloop
  endfacet
  facet normal -1.000000e+000  -0.000000e+000  0.000000e+000
    outer loop
      vertex  2.000000e+001 -7.500000e+000  3.000000e+001
      vertex  2.000000e+001 -2.500000e+000  3.000000e+001
      vertex  2.000000e+001 -7.500000e+000  0.000000e+000
    endloop
  endfacet
  facet normal -1.000000e+000  0.000000e+000  0.000000e+000
    outer loop
      vertex  2.000000e+001 -7.500000e+000  0.000000e+000
      vertex  2.000000e+001 -2.500000e+000  3.000000e+001
      vertex  2.000000e+001 -2.500000e+000  0.000000e+000
    endloop
  endfacet
  facet normal  0.000000e+000  0.000000e+000 -1.000000e+000
    outer loop
      vertex  2.500000e+001  2.500000e+000  0.000000e+000
      vertex  2.000000e+001  2.500000e+000  0.000000e+000
      vertex  2.500000e+001  7.500000e+000  0.000000e+000
    endloop
  endfacet
  facet normal  -0.000000e+000  0.000000e+000 -1.000000e+000
    outer loop
      vertex  2.500000e+001  7.500000e+000  0.000000e+000
      vertex  2.000000e+001  2.500000e+000  0.000000e+000
      vertex  2.000000e+001  7.500000e+000  0.000000e+000
    endloop
  endfacet
  facet normal  0.000000e+000  0.000000e+000 -1.000000e+000
    outer loop
      vertex  2.500000e+001 -7.500000e+000  0.000000e+000
      vertex  2.000000e+001 -7.500000e+000  0.000000e+000
      vertex  2.500000e+001 -2.500000e+000  0.000000e+000
    endloop
  endfacet
  facet normal  -0.000000e+000  0.000000e+000 -1.000000e+000
    outer loop
      vertex  2.500000e+001 -2.500000e+000  0.000000e+000
      vertex  2.000000e+001 -7.500000e+000  0.000000e+000
      vertex  2.000000e+001 -2.500000e+000  0.000000e+000
    endloop
  endfacet
  facet normal -1.000000e+000  0.000000e+000  0.000000e+000
    outer loop
      vertex  0.000000e+000 -7.500000e+000  3.500000e+001
      vertex  0.000000e+000 -2.500000e+000  0.000000e+000
      vertex  0.000000e+000 -7.500000e+000  1.421085e-014
    endloop
  endfacet
  facet normal -1.000000e+000  0.000000e+000  0.000000e+000
    outer loop
      vertex  0.000000e+000 -2.500000e+000  0.000000e+000
      vertex  0.000000e+000 -7.500000e+000  3.500000e+001
      vertex  0.000000e+000 -2.500000e+000  3.000000e+001
    endloop
  endfacet
  facet normal -1.000000e+000  0.000000e+000  0.000000e+000
    outer loop
      vertex  0.000000e+000 -2.500000e+000  3.000000e+001
      vertex  0.000000e+000 -7.500000e+000  3.500000e+001
      vertex  0.000000e+000  7.500000e+000  3.500000e+001
    endloop
  endfacet
  facet normal -1.000000e+000  0.000000e+000  0.000000e+000
    outer loop
      vertex  0.000000e+000 -2.500000e+000  3.000000e+001
      vertex  0.000000e+000  7.500000e+000  3.500000e+001
      vertex  0.000000e+000  2.500000e+000  3.000000e+001
    endloop
  endfacet
  facet normal -1.000000e+000  0.000000e+000  0.000000e+000
    outer loop
      vertex  0.000000e+000  2.500000e+000  3.000000e+001
      vertex  0.000000e+000  7.500000e+000  3.500000e+001
      vertex  0.000000e+000  7.500000e+000  0.000000e+000
    endloop
  endfacet
  facet normal -1.000000e+000  0.000000e+000  0.000000e+000
    outer loop
      vertex  0.000000e+000  2.500000e+000  3.000000e+001
      vertex  0.000000e+000  7.500000e+000  0.000000e+000
      vertex  0.000000e+000  2.500000e+000  1.776357e-015
    endloop
  endfacet
  facet normal  1.000000e+000  0.000000e+000  0.000000e+000
    outer loop
      vertex  5.000000e+000  2.500000e+000  1.776357e-015
      vertex  5.000000e+000  7.500000e+000  0.000000e+000
      vertex  5.000000e+000  2.500000e+000  3.000000e+001
    endloop
  endfacet
  facet normal  1.000000e+000  -0.000000e+000  0.000000e+000
    outer loop
      vertex  5.000000e+000  2.500000e+000  3.000000e+001
      vertex  5.000000e+000  7.500000e+000  0.000000e+000
      vertex  5.000000e+000  7.500000e+000  3.000000e+001
    endloop
  endfacet
  facet normal  1.000000e+000  0.000000e+000  0.000000e+000
    outer loop
      vertex  5.000000e+000 -7.500000e+000  1.421085e-014
      vertex  5.000000e+000 -2.500000e+000  0.000000e+000
      vertex  5.000000e+000 -7.500000e+000  3.000000e+001
    endloop
  endfacet
  facet normal  1.000000e+000  -0.000000e+000  0.000000e+000
    outer loop
      vertex  5.000000e+000 -7.500000e+000  3.000000e+001
      vertex  5.000000e+000 -2.500000e+000  0.000000e+000
      vertex  5.000000e+000 -2.500000e+000  3.000000e+001
    endloop
  endfacet
  facet normal  1.000000e+000  0.000000e+000  0.000000e+000
    outer loop
      vertex  5.000000e+000 -2.500000e+000  3.000000e+001
      vertex  5.000000e+000  2.500000e+000  3.000000e+001
      vertex  5.000000e+000 -2.500000e+000  3.500000e+001
    endloop
  endfacet
  facet normal  1.000000e+000  -0.000000e+000  0.000000e+000
    outer loop
      vertex  5.000000e+000 -2.500000e+000  3.500000e+001
      vertex  5.000000e+000  2.500000e+000  3.000000e+001
      vertex  5.000000e+000  2.500000e+000  3.500000e+001
    endloop
  endfacet
  facet normal  0.000000e+000 -1.000000e+000  0.000000e+000
    outer loop
      vertex  5.000000e+000  2.500000e+000  3.000000e+001
      vertex  0.000000e+000  2.500000e+000  3.000000e+001
      vertex  5.000000e+000  2.500000e+000  1.776357e-015
    endloop
  endfacet
  facet normal  0.000000e+000 -1.000000e+000  0.000000e+000
    outer loop
      vertex  5.000000e+000  2.500000e+000  1.776357e-015
      vertex  0.000000e+000  2.500000e+000  3.000000e+001
      vertex  0.000000e+000  2.500000e+000  1.776357e-015
    endloop
  endfacet
  facet normal  0.000000e+000  0.000000e+000 -1.000000e+000
    outer loop
      vertex  0.000000e+000 -2.500000e+000  3.000000e+001
      vertex  0.000000e+000  2.500000e+000  3.000000e+001
      vertex  5.000000e+000 -2.500000e+000  3.000000e+001
    endloop
  endfacet
  facet normal  0.000000e+000  0.000000e+000 -1.000000e+000
    outer loop
      vertex  5.000000e+000 -2.500000e+000  3.000000e+001
      vertex  0.000000e+000  2.500000e+000  3.000000e+001
      vertex  5.000000e+000  2.500000e+000  3.000000e+001
    endloop
  endfacet
  facet normal  0.000000e+000  1.000000e+000  0.000000e+000
    outer loop
      vertex  5.000000e+000 -2.500000e+000  0.000000e+000
      vertex  0.000000e+000 -2.500000e+000  0.000000e+000
      vertex  5.000000e+000 -2.500000e+000  3.000000e+001
    endloop
  endfacet
  facet normal  0.000000e+000  1.000000e+000  0.000000e+000
    outer loop
      vertex  5.000000e+000 -2.500000e+000  3.000000e+001
      vertex  0.000000e+000 -2.500000e+000  0.000000e+000
      vertex  0.000000e+000 -2.500000e+000  3.000000e+001
    endloop
  endfacet
  facet normal  0.000000e+000 -3.552713e-016 -1.000000e+000
    outer loop
      vertex  5.000000e+000  2.500000e+000  1.776357e-015
      vertex  0.000000e+000  2.500000e+000  1.776357e-015
      vertex  5.000000e+000  7.500000e+000  0.000000e+000
    endloop
  endfacet
  facet normal  -0.000000e+000 -3.552713e-016 -1.000000e+000
    outer loop
      vertex  5.000000e+000  7.500000e+000  0.000000e+000
      vertex  0.000000e+000  2.500000e+000  1.776357e-015
      vertex  0.000000e+000  7.500000e+000  0.000000e+000
    endloop
  endfacet
  facet normal  0.000000e+000 -2.842171e-015 -1.000000e+000
    outer loop
      vertex  5.000000e+000 -7.500000e+000  1.421085e-014
      vertex  0.000000e+000 -7.500000e+000  1.421085e-014
      vertex  5.000000e+000 -2.500000e+000  0.000000e+000
    endloop
  endfacet
  facet normal  -0.000000e+000 -2.842171e-015 -1.000000e+000
    outer loop
      vertex  5.000000e+000 -2.500000e+000  0.000000e+000
      vertex  0.000000e+000 -7.500000e+000  1.421085e-014
      vertex  0.000000e+000 -2.500000e+000  0.000000e+000
    endloop
  endfacet
endsolid CATIA STL
