solid CATIA STL
  facet normal  1.000000e+000  -0.000000e+000  0.000000e+000
    outer loop
      vertex  5.000000e+000  2.037630e+001  3.500000e+001
      vertex  5.000000e+000  1.337630e+001  3.500000e+001
      vertex  5.000000e+000  2.500000e+000  2.000000e+001
    endloop
  endfacet
  facet normal  1.000000e+000  0.000000e+000  -0.000000e+000
    outer loop
      vertex  5.000000e+000  2.500000e+000  2.000000e+001
      vertex  5.000000e+000  1.337630e+001  3.500000e+001
      vertex  5.000000e+000  7.105427e-015  2.377595e+001
    endloop
  endfacet
  facet normal  1.000000e+000  0.000000e+000  0.000000e+000
    outer loop
      vertex  5.000000e+000  2.500000e+000  2.000000e+001
      vertex  5.000000e+000  7.105427e-015  2.377595e+001
      vertex  5.000000e+000 -2.500000e+000  2.000000e+001
    endloop
  endfacet
  facet normal  1.000000e+000  0.000000e+000  0.000000e+000
    outer loop
      vertex  5.000000e+000 -2.037630e+001  3.500000e+001
      vertex  5.000000e+000 -2.500000e+000  2.000000e+001
      vertex  5.000000e+000 -1.337630e+001  3.500000e+001
    endloop
  endfacet
  facet normal  1.000000e+000  0.000000e+000  0.000000e+000
    outer loop
      vertex  5.000000e+000 -1.337630e+001  3.500000e+001
      vertex  5.000000e+000 -2.500000e+000  2.000000e+001
      vertex  5.000000e+000  7.105427e-015  2.377595e+001
    endloop
  endfacet
  facet normal  1.000000e+000  0.000000e+000  0.000000e+000
    outer loop
      vertex  5.000000e+000 -2.500000e+000  0.000000e+000
      vertex  5.000000e+000  2.500000e+000  0.000000e+000
      vertex  5.000000e+000 -2.500000e+000  2.000000e+001
    endloop
  endfacet
  facet normal  1.000000e+000  -0.000000e+000  0.000000e+000
    outer loop
      vertex  5.000000e+000 -2.500000e+000  2.000000e+001
      vertex  5.000000e+000  2.500000e+000  0.000000e+000
      vertex  5.000000e+000  2.500000e+000  2.000000e+001
    endloop
  endfacet
  facet normal -1.000000e+000  0.000000e+000  -0.000000e+000
    outer loop
      vertex  0.000000e+000 -2.500000e+000  2.000000e+001
      vertex  0.000000e+000  7.105427e-015  2.377595e+001
      vertex  0.000000e+000  2.500000e+000  2.000000e+001
    endloop
  endfacet
  facet normal -1.000000e+000  0.000000e+000  0.000000e+000
    outer loop
      vertex  0.000000e+000  2.500000e+000  2.000000e+001
      vertex  0.000000e+000  7.105427e-015  2.377595e+001
      vertex  0.000000e+000  1.337630e+001  3.500000e+001
    endloop
  endfacet
  facet normal -1.000000e+000  0.000000e+000  -0.000000e+000
    outer loop
      vertex  0.000000e+000  2.500000e+000  2.000000e+001
      vertex  0.000000e+000  1.337630e+001  3.500000e+001
      vertex  0.000000e+000  2.037630e+001  3.500000e+001
    endloop
  endfacet
  facet normal -1.000000e+000  -0.000000e+000  -0.000000e+000
    outer loop
      vertex  0.000000e+000 -2.037630e+001  3.500000e+001
      vertex  0.000000e+000 -1.337630e+001  3.500000e+001
      vertex  0.000000e+000 -2.500000e+000  2.000000e+001
    endloop
  endfacet
  facet normal -1.000000e+000  0.000000e+000  0.000000e+000
    outer loop
      vertex  0.000000e+000 -2.500000e+000  2.000000e+001
      vertex  0.000000e+000 -1.337630e+001  3.500000e+001
      vertex  0.000000e+000  7.105427e-015  2.377595e+001
    endloop
  endfacet
  facet normal -1.000000e+000  0.000000e+000  0.000000e+000
    outer loop
      vertex  0.000000e+000 -2.500000e+000  0.000000e+000
      vertex  0.000000e+000 -2.500000e+000  2.000000e+001
      vertex  0.000000e+000  2.500000e+000  0.000000e+000
    endloop
  endfacet
  facet normal -1.000000e+000  0.000000e+000  0.000000e+000
    outer loop
      vertex  0.000000e+000  2.500000e+000  0.000000e+000
      vertex  0.000000e+000 -2.500000e+000  2.000000e+001
      vertex  0.000000e+000  2.500000e+000  2.000000e+001
    endloop
  endfacet
  facet normal  0.000000e+000 -1.000000e+000  -0.000000e+000
    outer loop
      vertex  5.000000e+000 -2.500000e+000  0.000000e+000
      vertex  5.000000e+000 -2.500000e+000  2.000000e+001
      vertex  0.000000e+000 -2.500000e+000  0.000000e+000
    endloop
  endfacet
  facet normal  0.000000e+000 -1.000000e+000  0.000000e+000
    outer loop
      vertex  0.000000e+000 -2.500000e+000  0.000000e+000
      vertex  5.000000e+000 -2.500000e+000  2.000000e+001
      vertex  0.000000e+000 -2.500000e+000  2.000000e+001
    endloop
  endfacet
  facet normal  0.000000e+000 -6.427876e-001 -7.660445e-001
    outer loop
      vertex  5.000000e+000 -2.500000e+000  2.000000e+001
      vertex  5.000000e+000 -2.037630e+001  3.500000e+001
      vertex  0.000000e+000 -2.500000e+000  2.000000e+001
    endloop
  endfacet
  facet normal  0.000000e+000 -6.427876e-001 -7.660445e-001
    outer loop
      vertex  0.000000e+000 -2.500000e+000  2.000000e+001
      vertex  5.000000e+000 -2.037630e+001  3.500000e+001
      vertex  0.000000e+000 -2.037630e+001  3.500000e+001
    endloop
  endfacet
  facet normal  -0.000000e+000  0.000000e+000  1.000000e+000
    outer loop
      vertex  5.000000e+000 -1.337630e+001  3.500000e+001
      vertex  0.000000e+000 -1.337630e+001  3.500000e+001
      vertex  5.000000e+000 -2.037630e+001  3.500000e+001
    endloop
  endfacet
  facet normal  0.000000e+000  0.000000e+000  1.000000e+000
    outer loop
      vertex  5.000000e+000 -2.037630e+001  3.500000e+001
      vertex  0.000000e+000 -1.337630e+001  3.500000e+001
      vertex  0.000000e+000 -2.037630e+001  3.500000e+001
    endloop
  endfacet
  facet normal  0.000000e+000  6.427876e-001  7.660444e-001
    outer loop
      vertex  5.000000e+000 -1.337630e+001  3.500000e+001
      vertex  5.000000e+000  7.105427e-015  2.377595e+001
      vertex  0.000000e+000 -1.337630e+001  3.500000e+001
    endloop
  endfacet
  facet normal  0.000000e+000  6.427876e-001  7.660444e-001
    outer loop
      vertex  0.000000e+000 -1.337630e+001  3.500000e+001
      vertex  5.000000e+000  7.105427e-015  2.377595e+001
      vertex  0.000000e+000  7.105427e-015  2.377595e+001
    endloop
  endfacet
  facet normal  0.000000e+000 -6.427876e-001  7.660444e-001
    outer loop
      vertex  5.000000e+000  1.337630e+001  3.500000e+001
      vertex  0.000000e+000  1.337630e+001  3.500000e+001
      vertex  5.000000e+000  7.105427e-015  2.377595e+001
    endloop
  endfacet
  facet normal  0.000000e+000 -6.427876e-001  7.660444e-001
    outer loop
      vertex  5.000000e+000  7.105427e-015  2.377595e+001
      vertex  0.000000e+000  1.337630e+001  3.500000e+001
      vertex  0.000000e+000  7.105427e-015  2.377595e+001
    endloop
  endfacet
  facet normal  -0.000000e+000  0.000000e+000  1.000000e+000
    outer loop
      vertex  5.000000e+000  2.037630e+001  3.500000e+001
      vertex  0.000000e+000  2.037630e+001  3.500000e+001
      vertex  5.000000e+000  1.337630e+001  3.500000e+001
    endloop
  endfacet
  facet normal  0.000000e+000  0.000000e+000  1.000000e+000
    outer loop
      vertex  5.000000e+000  1.337630e+001  3.500000e+001
      vertex  0.000000e+000  2.037630e+001  3.500000e+001
      vertex  0.000000e+000  1.337630e+001  3.500000e+001
    endloop
  endfacet
  facet normal  0.000000e+000  6.427876e-001 -7.660445e-001
    outer loop
      vertex  5.000000e+000  2.500000e+000  2.000000e+001
      vertex  0.000000e+000  2.500000e+000  2.000000e+001
      vertex  5.000000e+000  2.037630e+001  3.500000e+001
    endloop
  endfacet
  facet normal  0.000000e+000  6.427876e-001 -7.660445e-001
    outer loop
      vertex  5.000000e+000  2.037630e+001  3.500000e+001
      vertex  0.000000e+000  2.500000e+000  2.000000e+001
      vertex  0.000000e+000  2.037630e+001  3.500000e+001
    endloop
  endfacet
  facet normal  0.000000e+000  1.000000e+000  0.000000e+000
    outer loop
      vertex  5.000000e+000  2.500000e+000  0.000000e+000
      vertex  0.000000e+000  2.500000e+000  0.000000e+000
      vertex  5.000000e+000  2.500000e+000  2.000000e+001
    endloop
  endfacet
  facet normal  0.000000e+000  1.000000e+000  0.000000e+000
    outer loop
      vertex  5.000000e+000  2.500000e+000  2.000000e+001
      vertex  0.000000e+000  2.500000e+000  0.000000e+000
      vertex  0.000000e+000  2.500000e+000  2.000000e+001
    endloop
  endfacet
  facet normal  0.000000e+000  0.000000e+000 -1.000000e+000
    outer loop
      vertex  0.000000e+000 -2.500000e+000  0.000000e+000
      vertex  0.000000e+000  2.500000e+000  0.000000e+000
      vertex  5.000000e+000 -2.500000e+000  0.000000e+000
    endloop
  endfacet
  facet normal  0.000000e+000  0.000000e+000 -1.000000e+000
    outer loop
      vertex  5.000000e+000 -2.500000e+000  0.000000e+000
      vertex  0.000000e+000  2.500000e+000  0.000000e+000
      vertex  5.000000e+000  2.500000e+000  0.000000e+000
    endloop
  endfacet
endsolid CATIA STL
