solid CATIA STL
  facet normal  1.000000e+000  -0.000000e+000  0.000000e+000
    outer loop
      vertex  5.000000e+000  1.116025e+001  3.500000e+001
      vertex  5.000000e+000  4.160254e+000  3.500000e+001
      vertex  5.000000e+000  2.500000e+000  2.000000e+001
    endloop
  endfacet
  facet normal  1.000000e+000  0.000000e+000  -0.000000e+000
    outer loop
      vertex  5.000000e+000  2.500000e+000  2.000000e+001
      vertex  5.000000e+000  4.160254e+000  3.500000e+001
      vertex  5.000000e+000  7.105427e-015  2.779423e+001
    endloop
  endfacet
  facet normal  1.000000e+000  0.000000e+000  0.000000e+000
    outer loop
      vertex  5.000000e+000  2.500000e+000  2.000000e+001
      vertex  5.000000e+000  7.105427e-015  2.779423e+001
      vertex  5.000000e+000 -2.500000e+000  2.000000e+001
    endloop
  endfacet
  facet normal  1.000000e+000  0.000000e+000  0.000000e+000
    outer loop
      vertex  5.000000e+000 -2.500000e+000  0.000000e+000
      vertex  5.000000e+000  2.500000e+000  0.000000e+000
      vertex  5.000000e+000 -2.500000e+000  2.000000e+001
    endloop
  endfacet
  facet normal  1.000000e+000  -0.000000e+000  0.000000e+000
    outer loop
      vertex  5.000000e+000 -2.500000e+000  2.000000e+001
      vertex  5.000000e+000  2.500000e+000  0.000000e+000
      vertex  5.000000e+000  2.500000e+000  2.000000e+001
    endloop
  endfacet
  facet normal  1.000000e+000  0.000000e+000  0.000000e+000
    outer loop
      vertex  5.000000e+000 -1.116025e+001  3.500000e+001
      vertex  5.000000e+000 -2.500000e+000  2.000000e+001
      vertex  5.000000e+000 -4.160254e+000  3.500000e+001
    endloop
  endfacet
  facet normal  1.000000e+000  0.000000e+000  0.000000e+000
    outer loop
      vertex  5.000000e+000 -4.160254e+000  3.500000e+001
      vertex  5.000000e+000 -2.500000e+000  2.000000e+001
      vertex  5.000000e+000  7.105427e-015  2.779423e+001
    endloop
  endfacet
  facet normal -1.000000e+000  0.000000e+000  -0.000000e+000
    outer loop
      vertex  0.000000e+000 -2.500000e+000  2.000000e+001
      vertex  0.000000e+000  7.105427e-015  2.779423e+001
      vertex  0.000000e+000  2.500000e+000  2.000000e+001
    endloop
  endfacet
  facet normal -1.000000e+000  0.000000e+000  0.000000e+000
    outer loop
      vertex  0.000000e+000  2.500000e+000  2.000000e+001
      vertex  0.000000e+000  7.105427e-015  2.779423e+001
      vertex  0.000000e+000  4.160254e+000  3.500000e+001
    endloop
  endfacet
  facet normal -1.000000e+000  0.000000e+000  -0.000000e+000
    outer loop
      vertex  0.000000e+000  2.500000e+000  2.000000e+001
      vertex  0.000000e+000  4.160254e+000  3.500000e+001
      vertex  0.000000e+000  1.116025e+001  3.500000e+001
    endloop
  endfacet
  facet normal -1.000000e+000  0.000000e+000  0.000000e+000
    outer loop
      vertex  0.000000e+000 -2.500000e+000  0.000000e+000
      vertex  0.000000e+000 -2.500000e+000  2.000000e+001
      vertex  0.000000e+000  2.500000e+000  0.000000e+000
    endloop
  endfacet
  facet normal -1.000000e+000  0.000000e+000  0.000000e+000
    outer loop
      vertex  0.000000e+000  2.500000e+000  0.000000e+000
      vertex  0.000000e+000 -2.500000e+000  2.000000e+001
      vertex  0.000000e+000  2.500000e+000  2.000000e+001
    endloop
  endfacet
  facet normal -1.000000e+000  -0.000000e+000  -0.000000e+000
    outer loop
      vertex  0.000000e+000 -1.116025e+001  3.500000e+001
      vertex  0.000000e+000 -4.160254e+000  3.500000e+001
      vertex  0.000000e+000 -2.500000e+000  2.000000e+001
    endloop
  endfacet
  facet normal -1.000000e+000  0.000000e+000  0.000000e+000
    outer loop
      vertex  0.000000e+000 -2.500000e+000  2.000000e+001
      vertex  0.000000e+000 -4.160254e+000  3.500000e+001
      vertex  0.000000e+000  7.105427e-015  2.779423e+001
    endloop
  endfacet
  facet normal  0.000000e+000 -1.000000e+000  -0.000000e+000
    outer loop
      vertex  5.000000e+000 -2.500000e+000  0.000000e+000
      vertex  5.000000e+000 -2.500000e+000  2.000000e+001
      vertex  0.000000e+000 -2.500000e+000  0.000000e+000
    endloop
  endfacet
  facet normal  0.000000e+000 -1.000000e+000  0.000000e+000
    outer loop
      vertex  0.000000e+000 -2.500000e+000  0.000000e+000
      vertex  5.000000e+000 -2.500000e+000  2.000000e+001
      vertex  0.000000e+000 -2.500000e+000  2.000000e+001
    endloop
  endfacet
  facet normal  0.000000e+000 -8.660254e-001 -5.000001e-001
    outer loop
      vertex  5.000000e+000 -2.500000e+000  2.000000e+001
      vertex  5.000000e+000 -1.116025e+001  3.500000e+001
      vertex  0.000000e+000 -2.500000e+000  2.000000e+001
    endloop
  endfacet
  facet normal  0.000000e+000 -8.660254e-001 -5.000001e-001
    outer loop
      vertex  0.000000e+000 -2.500000e+000  2.000000e+001
      vertex  5.000000e+000 -1.116025e+001  3.500000e+001
      vertex  0.000000e+000 -1.116025e+001  3.500000e+001
    endloop
  endfacet
  facet normal  -0.000000e+000  0.000000e+000  1.000000e+000
    outer loop
      vertex  5.000000e+000 -4.160254e+000  3.500000e+001
      vertex  0.000000e+000 -4.160254e+000  3.500000e+001
      vertex  5.000000e+000 -1.116025e+001  3.500000e+001
    endloop
  endfacet
  facet normal  0.000000e+000  0.000000e+000  1.000000e+000
    outer loop
      vertex  5.000000e+000 -1.116025e+001  3.500000e+001
      vertex  0.000000e+000 -4.160254e+000  3.500000e+001
      vertex  0.000000e+000 -1.116025e+001  3.500000e+001
    endloop
  endfacet
  facet normal  0.000000e+000  8.660254e-001  5.000000e-001
    outer loop
      vertex  5.000000e+000 -4.160254e+000  3.500000e+001
      vertex  5.000000e+000  7.105427e-015  2.779423e+001
      vertex  0.000000e+000 -4.160254e+000  3.500000e+001
    endloop
  endfacet
  facet normal  0.000000e+000  8.660254e-001  5.000000e-001
    outer loop
      vertex  0.000000e+000 -4.160254e+000  3.500000e+001
      vertex  5.000000e+000  7.105427e-015  2.779423e+001
      vertex  0.000000e+000  7.105427e-015  2.779423e+001
    endloop
  endfacet
  facet normal  0.000000e+000 -8.660254e-001  5.000000e-001
    outer loop
      vertex  5.000000e+000  4.160254e+000  3.500000e+001
      vertex  0.000000e+000  4.160254e+000  3.500000e+001
      vertex  5.000000e+000  7.105427e-015  2.779423e+001
    endloop
  endfacet
  facet normal  0.000000e+000 -8.660254e-001  5.000000e-001
    outer loop
      vertex  5.000000e+000  7.105427e-015  2.779423e+001
      vertex  0.000000e+000  4.160254e+000  3.500000e+001
      vertex  0.000000e+000  7.105427e-015  2.779423e+001
    endloop
  endfacet
  facet normal  -0.000000e+000  0.000000e+000  1.000000e+000
    outer loop
      vertex  5.000000e+000  1.116025e+001  3.500000e+001
      vertex  0.000000e+000  1.116025e+001  3.500000e+001
      vertex  5.000000e+000  4.160254e+000  3.500000e+001
    endloop
  endfacet
  facet normal  0.000000e+000  0.000000e+000  1.000000e+000
    outer loop
      vertex  5.000000e+000  4.160254e+000  3.500000e+001
      vertex  0.000000e+000  1.116025e+001  3.500000e+001
      vertex  0.000000e+000  4.160254e+000  3.500000e+001
    endloop
  endfacet
  facet normal  0.000000e+000  8.660254e-001 -5.000001e-001
    outer loop
      vertex  5.000000e+000  2.500000e+000  2.000000e+001
      vertex  0.000000e+000  2.500000e+000  2.000000e+001
      vertex  5.000000e+000  1.116025e+001  3.500000e+001
    endloop
  endfacet
  facet normal  0.000000e+000  8.660254e-001 -5.000001e-001
    outer loop
      vertex  5.000000e+000  1.116025e+001  3.500000e+001
      vertex  0.000000e+000  2.500000e+000  2.000000e+001
      vertex  0.000000e+000  1.116025e+001  3.500000e+001
    endloop
  endfacet
  facet normal  0.000000e+000  1.000000e+000  0.000000e+000
    outer loop
      vertex  5.000000e+000  2.500000e+000  0.000000e+000
      vertex  0.000000e+000  2.500000e+000  0.000000e+000
      vertex  5.000000e+000  2.500000e+000  2.000000e+001
    endloop
  endfacet
  facet normal  0.000000e+000  1.000000e+000  0.000000e+000
    outer loop
      vertex  5.000000e+000  2.500000e+000  2.000000e+001
      vertex  0.000000e+000  2.500000e+000  0.000000e+000
      vertex  0.000000e+000  2.500000e+000  2.000000e+001
    endloop
  endfacet
  facet normal  0.000000e+000  0.000000e+000 -1.000000e+000
    outer loop
      vertex  0.000000e+000 -2.500000e+000  0.000000e+000
      vertex  0.000000e+000  2.500000e+000  0.000000e+000
      vertex  5.000000e+000 -2.500000e+000  0.000000e+000
    endloop
  endfacet
  facet normal  0.000000e+000  0.000000e+000 -1.000000e+000
    outer loop
      vertex  5.000000e+000 -2.500000e+000  0.000000e+000
      vertex  0.000000e+000  2.500000e+000  0.000000e+000
      vertex  5.000000e+000  2.500000e+000  0.000000e+000
    endloop
  endfacet
endsolid CATIA STL
